<?xml version="1.0" standalone="no"?>
<!DOCTYPE svg PUBLIC "-//W3C//DTD SVG 20010904//EN"
 "http://www.w3.org/TR/2001/REC-SVG-20010904/DTD/svg10.dtd">
<svg version="1.0" xmlns="http://www.w3.org/2000/svg"
 width="316.000000pt" height="316.000000pt" viewBox="0 0 316.000000 316.000000"
 preserveAspectRatio="xMidYMid meet">
<metadata>
Created by potrace 1.11, written by Peter Selinger 2001-2013
</metadata>
<g transform="translate(0.000000,316.000000) scale(0.100000,-0.100000)"
fill="#000000" stroke="none">
<path d="M2625 3056 c-138 -44 -319 -174 -396 -285 -26 -36 -165 -257 -309
-491 -144 -234 -264 -427 -266 -429 -1 -1 -48 5 -103 14 -55 9 -108 18 -117
19 -13 2 -18 14 -19 47 -4 83 -53 141 -148 173 -98 33 -171 9 -224 -73 -18
-27 -33 -55 -33 -61 0 -6 -10 -8 -22 -5 -13 2 -79 14 -148 25 -69 12 -136 23
-150 26 -29 5 -211 38 -326 58 -122 21 -159 7 -168 -66 -6 -49 14 -74 83 -107
32 -15 56 -32 54 -38 -3 -7 3 -27 11 -45 16 -33 28 -41 191 -128 143 -77 251
-137 311 -176 41 -26 71 -38 96 -39 29 0 38 -4 38 -17 0 -10 57 -61 139 -125
77 -59 140 -112 140 -116 1 -5 -52 -95 -117 -200 -96 -157 -142 -237 -147
-254 0 -2 -85 22 -253 72 -135 40 -180 41 -207 2 -20 -29 -19 -80 3 -106 9
-11 99 -61 200 -111 166 -82 182 -92 177 -112 -17 -73 -6 -139 28 -176 43 -46
122 -44 199 5 21 13 40 23 44 23 5 0 140 -104 201 -155 116 -96 160 -110 208
-65 39 37 34 84 -16 145 -43 52 -130 153 -164 189 -48 51 -49 55 -28 79 10 12
48 63 83 112 36 50 68 95 72 100 5 6 35 47 68 93 33 45 62 82 65 82 4 0 29
-13 58 -29 163 -89 246 -131 261 -131 9 0 21 -11 25 -24 5 -13 46 -49 91 -80
44 -31 160 -121 256 -199 159 -128 180 -141 215 -141 35 0 47 -7 120 -78 119
-115 135 -123 193 -97 53 25 56 89 6 163 -15 23 -94 142 -175 266 -82 124
-175 265 -207 313 -32 49 -58 91 -58 94 0 4 16 30 35 58 44 64 53 111 31 168
-43 110 -169 171 -261 126 l-30 -15 -61 92 c-34 51 -64 96 -68 102 -3 5 83
133 192 285 413 579 461 652 496 754 84 237 68 431 -38 482 -48 24 -74 25
-131 7z"/>
</g>
</svg>
